<?xml version="1.0" standalone="no"?>
<!DOCTYPE svg PUBLIC "-//W3C//DTD SVG 20010904//EN"
 "http://www.w3.org/TR/2001/REC-SVG-20010904/DTD/svg10.dtd">
<svg version="1.0" xmlns="http://www.w3.org/2000/svg"
 width="1280.000000pt" height="640.000000pt" viewBox="0 0 1280.000000 640.000000"
 preserveAspectRatio="xMidYMid meet">
<metadata>
Created by potrace 1.15, written by Peter Selinger 2001-2017
</metadata>
<g transform="translate(0.000000,640.000000) scale(0.100000,-0.100000)"
fill="#000000" stroke="none">
<path d="M811 6198 c-104 -13 -241 -59 -339 -115 -97 -55 -232 -177 -298 -268
-58 -82 -119 -214 -147 -318 l-22 -82 0 -2215 0 -2215 22 -82 c93 -349 367
-612 721 -691 71 -16 233 -17 2257 -17 2422 0 2246 -5 2416 65 232 96 430 292
518 512 72 179 66 -46 66 2428 0 2144 -1 2228 -19 2294 -29 108 -71 201 -130
290 -117 175 -282 304 -475 371 -161 57 -84 55 -2381 54 -1233 -1 -2146 -5
-2189 -11z m4431 -203 c218 -46 433 -227 521 -440 55 -134 52 4 52 -2355 0
-2359 3 -2221 -52 -2354 -94 -227 -310 -402 -548 -446 -43 -8 -685 -10 -2245
-8 l-2185 3 -78 27 c-113 38 -211 100 -297 187 -113 116 -179 240 -206 390
-20 112 -20 4290 0 4402 51 285 265 515 547 589 72 18 131 19 2246 19 1908 1
2181 -1 2245 -14z"/>
<path d="M2899 5836 c-132 -47 -226 -173 -237 -316 -18 -253 253 -424 497
-315 115 52 177 145 187 282 5 66 3 87 -17 138 -31 82 -121 173 -202 203 -66
25 -171 29 -228 8z"/>
<path d="M2677 5050 c-67 -12 -167 -61 -208 -103 -81 -84 -123 -185 -219 -532
-23 -82 -61 -214 -86 -293 -88 -285 -112 -413 -89 -468 32 -78 166 -93 226
-26 30 33 53 104 154 462 114 407 131 456 165 480 17 12 30 16 30 10 0 -12
-139 -573 -179 -721 -11 -41 -63 -245 -116 -454 -53 -209 -98 -388 -101 -397
-5 -16 11 -18 198 -20 l203 -3 5 -627 c5 -613 5 -627 26 -654 38 -52 71 -69
132 -69 44 0 65 5 91 24 65 47 65 39 63 621 -1 289 1 567 4 618 l6 92 44 0 43
0 3 -622 c3 -608 4 -624 24 -658 30 -51 78 -80 133 -80 60 0 104 27 133 82
l23 43 5 615 5 615 201 5 201 5 -67 235 c-38 129 -104 357 -149 507 -116 392
-246 872 -237 880 1 1 17 -13 35 -31 36 -38 52 -81 152 -411 100 -333 159
-504 185 -535 14 -16 41 -34 60 -40 43 -14 139 -9 157 9 8 8 11 45 10 114 -1
107 -9 143 -88 392 -20 66 -59 197 -86 290 -73 252 -97 321 -146 417 -70 137
-155 200 -307 229 -59 11 -571 10 -639 -1z"/>
<path d="M3530 1375 c-160 -45 -264 -193 -277 -394 -11 -162 33 -307 117 -391
107 -107 307 -137 447 -67 84 43 164 149 187 250 l7 28 -92 -3 -92 -3 -10 -30
c-34 -105 -149 -153 -252 -106 -87 39 -125 124 -125 276 0 113 20 184 66 234
46 51 80 64 157 59 78 -5 119 -31 150 -97 l22 -46 85 0 85 0 -1 32 c-4 88
-101 205 -199 242 -78 29 -201 36 -275 16z"/>
<path d="M2094 1328 c7 -24 61 -217 122 -430 l109 -388 83 0 c57 0 84 4 87 12
3 7 34 155 69 328 41 200 66 306 70 290 3 -14 28 -137 56 -275 28 -137 56
-274 62 -302 l11 -53 87 0 87 0 16 58 c149 533 218 779 222 790 3 9 -18 12
-88 12 l-93 0 -69 -305 c-38 -167 -71 -302 -73 -300 -4 3 -62 283 -109 518
l-17 87 -96 0 -97 0 -53 -272 c-68 -352 -66 -346 -73 -328 -3 8 -12 53 -21
100 -9 47 -38 177 -64 290 l-48 205 -96 3 -97 3 13 -43z"/>
<path d="M7580 6195 c-370 -58 -665 -328 -766 -701 -18 -66 -19 -150 -19
-2294 0 -2144 1 -2228 19 -2294 48 -178 135 -324 268 -452 128 -123 281 -204
452 -241 76 -17 220 -18 2261 -18 2024 0 2186 1 2257 17 296 66 538 261 664
534 19 41 45 111 57 157 l22 82 0 2215 0 2215 -22 82 c-25 94 -85 228 -134
300 -44 64 -141 165 -211 219 -126 98 -287 163 -453 183 -143 17 -4282 13
-4395 -4z m4515 -217 c241 -82 424 -278 492 -528 17 -61 18 -184 18 -2250 0
-2066 -1 -2189 -18 -2250 -68 -250 -251 -446 -494 -528 l-78 -27 -2190 -3
c-1596 -2 -2205 0 -2245 8 -240 49 -450 222 -543 446 -55 133 -52 -5 -52 2354
0 1823 2 2194 14 2240 53 213 201 399 394 494 164 81 -46 75 2417 73 l2205 -2
80 -27z"/>
<path d="M9823 5831 c-89 -31 -151 -89 -195 -187 -17 -38 -22 -68 -23 -134 0
-102 26 -169 94 -238 169 -173 477 -109 560 116 34 92 36 132 12 211 -17 57
-32 82 -77 130 -78 84 -154 121 -248 121 -41 -1 -93 -8 -123 -19z"/>
<path d="M9455 5085 c-164 -30 -250 -87 -307 -203 l-33 -66 -8 -316 c-11 -433
-1 -993 19 -1031 21 -41 56 -61 112 -62 64 -3 97 21 130 91 l27 57 3 488 3
487 38 0 38 0 6 -107 c4 -58 7 -682 7 -1385 0 -1380 -3 -1304 52 -1355 60 -56
171 -70 248 -31 94 48 100 109 100 1033 l0 725 39 0 39 0 3 -827 c4 -813 4
-829 25 -868 48 -93 204 -114 294 -38 65 54 60 -52 63 1463 2 759 5 1381 8
1383 2 2 25 7 52 10 l47 7 0 -488 c0 -317 4 -501 11 -526 6 -21 28 -57 49 -80
37 -39 42 -41 93 -40 71 2 95 16 120 72 20 46 20 61 20 637 0 400 -4 609 -12
650 -33 175 -143 280 -334 319 -100 21 -841 22 -952 1z"/>
<path d="M10425 1377 c-98 -26 -158 -71 -216 -160 -53 -82 -73 -177 -66 -316
6 -122 23 -187 68 -255 71 -107 177 -159 324 -159 150 1 254 64 320 195 19 39
35 81 35 94 0 23 -2 24 -89 24 -89 0 -89 0 -96 -27 -19 -78 -91 -133 -173
-133 -55 0 -99 19 -139 61 -106 112 -91 408 24 497 29 21 49 27 103 30 94 6
139 -18 175 -93 l27 -55 84 0 c45 0 85 3 87 8 10 16 -22 105 -54 152 -63 92
-155 139 -289 146 -43 2 -97 -2 -125 -9z"/>
<path d="M8970 1365 c0 -2 49 -177 109 -389 61 -211 115 -403 121 -425 l11
-41 84 0 c71 0 84 3 89 18 3 9 33 154 66 322 34 168 63 306 65 308 1 1 8 -26
14 -60 19 -100 112 -551 117 -571 5 -16 16 -17 92 -15 l86 3 27 95 c14 52 65
232 112 400 47 168 89 317 92 333 l7 27 -90 0 c-90 0 -90 0 -97 -27 -29 -119
-125 -548 -125 -563 0 -11 -4 -20 -10 -20 -5 0 -10 8 -10 19 0 15 -95 486
-115 569 -5 21 -10 22 -100 22 -90 0 -95 -1 -100 -22 -2 -13 -27 -140 -55
-283 -66 -342 -60 -323 -76 -245 -16 75 -113 507 -120 533 -5 15 -18 17 -100
17 -52 0 -94 -2 -94 -5z"/>
</g>
</svg>
